G04 ================== begin FILE IDENTIFICATION RECORD ==================*
G04 Layout Name:  C:/USERS/USER/DESKTOP/ORCAD WORK/CAD_3/allegro/CAD_3.brd*
G04 Film Name:    skikb*
G04 File Format:  Gerber RS274X*
G04 File Origin:  Cadence Allegro 17.2-P019*
G04 Origin Date:  Wed Jul 31 16:05:05 2019*
G04 *
G04 Layer:  REF DES/SILKSCREEN_BOTTOM*
G04 Layer:  PACKAGE GEOMETRY/SILKSCREEN_TOP*
G04 Layer:  PACKAGE GEOMETRY/SILKSCREEN_BOTTOM*
G04 Layer:  BOARD GEOMETRY/SILKSCREEN_TOP*
G04 Layer:  BOARD GEOMETRY/SILKSCREEN_BOTTOM*
G04 *
G04 Offset:    (0.000 0.000)*
G04 Mirror:    No*
G04 Mode:      Positive*
G04 Rotation:  0*
G04 FullContactRelief:  No*
G04 UndefLineWidth:     0.200*
G04 ================== end FILE IDENTIFICATION RECORD ====================*
%FSLAX25Y25*MOMM*%
%IR0*IPPOS*OFA0.00000B0.00000*MIA0B0*SFA1.00000B1.00000*%
%ADD10C,.2*%
G75*
%LPD*%
G75*
G54D10*
G01X1127000Y1927000D02*
Y1419000D01*
X873000D01*
Y1927000D01*
X1127000D01*
G01X373000Y3627000D02*
X627000D01*
Y2611000D01*
X373000D01*
Y3627000D01*
G01X1016000Y4533900D02*
Y5245100D01*
X1270000D01*
Y4533900D01*
X1016000D01*
G01X1627000Y1947600D02*
Y1236400D01*
X1373000D01*
Y1947600D01*
X1627000D01*
G01X1173000Y2901600D02*
Y3054000D01*
X1236500Y3117500D01*
Y3244500D01*
X1173000Y3308000D01*
Y3460400D01*
X2189000D01*
Y2901600D01*
X1173000D01*
G01X1905000Y5245100D02*
Y4533900D01*
X1651000D01*
Y5245100D01*
X1905000D01*
G01X2273000Y1352400D02*
Y2063600D01*
X2527000D01*
Y1352400D01*
X2273000D01*
G01X2627000Y5247600D02*
Y4536400D01*
X2373000D01*
Y5247600D01*
X2627000D01*
G01X2773000Y2901600D02*
Y3054000D01*
X2836500Y3117500D01*
Y3244500D01*
X2773000Y3308000D01*
Y3460400D01*
X3789000D01*
Y2901600D01*
X2773000D01*
G01X3227000Y5247600D02*
Y4536400D01*
X2973000D01*
Y5247600D01*
X3227000D01*
G01X3727000Y2147600D02*
Y1436400D01*
X3473000D01*
Y2147600D01*
X3727000D01*
G01X4073000Y2901600D02*
Y3054000D01*
X4136500Y3117500D01*
Y3244500D01*
X4073000Y3308000D01*
Y3460400D01*
X5089000D01*
Y2901600D01*
X4073000D01*
G01X4064000Y4635500D02*
Y5118100D01*
X4318000D01*
Y4635500D01*
X4064000D01*
G01Y4724400D02*
X4318000D01*
G01X4064000Y4711700D02*
X4318000D01*
G01X3746500Y5245100D02*
Y4533900D01*
X3492500D01*
Y5245100D01*
X3746500D01*
G01X4727000Y2147600D02*
Y1436400D01*
X4473000D01*
Y2147600D01*
X4727000D01*
G01X4699000Y4533900D02*
Y5245100D01*
X4953000D01*
Y4533900D01*
X4699000D01*
G01X5627000Y2147600D02*
Y1436400D01*
X5373000D01*
Y2147600D01*
X5627000D01*
G01X7490500Y3498400D02*
X5585500D01*
Y2939600D01*
X7490500D01*
Y3092000D01*
X7427000Y3155500D01*
Y3282500D01*
X7490500Y3346000D01*
Y3498400D01*
G01X5588000Y5245100D02*
Y4533900D01*
X5334000D01*
Y5245100D01*
X5588000D01*
G01X6427000Y2147600D02*
Y1436400D01*
X6173000D01*
Y2147600D01*
X6427000D01*
G01X6540500Y5080000D02*
Y4597400D01*
X6286500D01*
Y5080000D01*
X6540500D01*
G01Y4991100D02*
X6286500D01*
G01X6540500Y5003800D02*
X6286500D01*
G01X7227000Y2147600D02*
Y1436400D01*
X6973000D01*
Y2147600D01*
X7227000D01*
G01X8347600Y3973000D02*
X7636400D01*
Y4227000D01*
X8347600D01*
Y3973000D01*
G01X7652400Y5027000D02*
X8363600D01*
Y4773000D01*
X7652400D01*
Y5027000D01*
G01Y5727000D02*
X8363600D01*
Y5473000D01*
X7652400D01*
Y5727000D01*
G01X8573000Y2852400D02*
Y3563600D01*
X8827000D01*
Y2852400D01*
X8573000D01*
G01X9627000Y2873000D02*
X9373000D01*
Y3381000D01*
X9627000D01*
Y2873000D01*
M02*
