G04 ================== begin FILE IDENTIFICATION RECORD ==================*
G04 Layout Name:  C:/USERS/USER/DESKTOP/ORCAD WORK/CAD_3/allegro/CAD_3.brd*
G04 Film Name:    SolderT*
G04 File Format:  Gerber RS274X*
G04 File Origin:  Cadence Allegro 17.2-P019*
G04 Origin Date:  Wed Jul 31 16:05:05 2019*
G04 *
G04 Layer:  VIA CLASS/SOLDERMASK_TOP*
G04 Layer:  PIN/SOLDERMASK_TOP*
G04 Layer:  PACKAGE GEOMETRY/SOLDERMASK_TOP*
G04 Layer:  BOARD GEOMETRY/SOLDERMASK_TOP*
G04 *
G04 Offset:    (0.000 0.000)*
G04 Mirror:    No*
G04 Mode:      Positive*
G04 Rotation:  0*
G04 FullContactRelief:  No*
G04 UndefLineWidth:     0.000*
G04 ================== end FILE IDENTIFICATION RECORD ====================*
%FSLAX25Y25*MOMM*%
%IR0*IPPOS*OFA0.00000B0.00000*MIA0B0*SFA1.00000B1.00000*%
%ADD11C,2.032*%
%ADD12C,1.905*%
%ADD10C,3.683*%
%ADD13R,1.905X1.905*%
%LPD*%
G75*
G54D10*
X500000Y500000D03*
Y6500000D03*
X9500000Y500000D03*
Y6500000D03*
G54D11*
X1000000Y1546000D03*
Y1800000D03*
X1143000Y4381500D03*
Y5397500D03*
X1500000Y1084000D03*
Y2100000D03*
X1778000Y4381500D03*
Y5397500D03*
X2400000Y1200000D03*
Y2216000D03*
X2500000Y4384000D03*
Y5400000D03*
X3100000Y4384000D03*
Y5400000D03*
X3600000Y1284000D03*
Y2300000D03*
X3619500Y4381500D03*
Y5397500D03*
X4600000Y1284000D03*
Y2300000D03*
X4826000Y4381500D03*
Y5397500D03*
X5500000Y1284000D03*
Y2300000D03*
X5461000Y4381500D03*
Y5397500D03*
X6300000Y1284000D03*
Y2300000D03*
X7100000Y1284000D03*
Y2300000D03*
X7484000Y4100000D03*
X7500000Y4900000D03*
Y5600000D03*
X8700000Y2700000D03*
Y3716000D03*
X8500000Y4100000D03*
X8516000Y4900000D03*
Y5600000D03*
G54D12*
X500000Y2738000D03*
Y2992000D03*
Y3246000D03*
Y3500000D03*
X1808000Y2800000D03*
X1554000D03*
X1808000Y3562000D03*
X1554000D03*
X1300000D03*
X2062000Y2800000D03*
Y3562000D03*
X3408000Y2800000D03*
X3154000D03*
X3408000Y3562000D03*
X3154000D03*
X2900000D03*
X3662000Y2800000D03*
X4200000Y3562000D03*
X3662000D03*
X4191000Y5372100D03*
X4962000Y2800000D03*
X4708000D03*
X4454000D03*
X4962000Y3562000D03*
X4708000D03*
X4454000D03*
X5776000Y2838000D03*
Y3600000D03*
X6538000Y2838000D03*
X6030000D03*
X6284000D03*
X6030000Y3600000D03*
X6538000D03*
X6284000D03*
X6413500Y4343400D03*
X6792000Y2838000D03*
X7300000D03*
X7046000D03*
X6792000Y3600000D03*
X7046000D03*
X9500000Y3000000D03*
Y3254000D03*
G54D13*
X1300000Y2800000D03*
X2900000D03*
X4200000D03*
X4191000Y4381500D03*
X6413500Y5334000D03*
X7300000Y3600000D03*
M02*
